# xmcd
#
# Track frame offsets:
# 150
# 16032
# 33697
# 50020
# 64825
# 81107
# 97075
# 112820
# 129807
# 148600
# 167010
# 180567
# 195480
# 212922
#
# Disc length: 3017 seconds
#
#
# Revision: 0
# Processed by: cddbd v1.5.1PL2 Copyright (c) Steve Scherf et al.
# Submitted via: FreeRIP 2.945 
#
DISCID=bb0bc70e
DTITLE=José Augusto - De Volta pro Interior
DYEAR=2001
DGENRE=Country
TTITLE0=Beijinho Doce
TTITLE1=Cabecinha no Ombro
TTITLE2=Canção da Meia Noite
TTITLE3=Casinha Brança
TTITLE4=De Volta pro Interior
TTITLE5=Indiferença
TTITLE6=O Meninho da Porteira
TTITLE7=Meu Primeiro Amor
TTITLE8=No Rancho Fundo
TTITLE9=Por Entre os Dedos
TTITLE10=Toada
TTITLE11=Tocando em Frente
TTITLE12=Vida Cigana
TTITLE13=A Vida do Viajante
EXTD=
EXTT0=
EXTT1=
EXTT2=
EXTT3=
EXTT4=
EXTT5=
EXTT6=
EXTT7=
EXTT8=
EXTT9=
EXTT10=
EXTT11=
EXTT12=
EXTT13=
PLAYORDER=
